<?xml version="1.0" encoding="UTF-8" standalone="no"?>
<svg
   xmlns:dc="http://purl.org/dc/elements/1.1/"
   xmlns:cc="http://creativecommons.org/ns#"
   xmlns:rdf="http://www.w3.org/1999/02/22-rdf-syntax-ns#"
   xmlns:svg="http://www.w3.org/2000/svg"
   xmlns="http://www.w3.org/2000/svg"
   xmlns:sodipodi="http://sodipodi.sourceforge.net/DTD/sodipodi-0.dtd"
   xmlns:inkscape="http://www.inkscape.org/namespaces/inkscape"
   version="1.1"
   x="0px"
   y="0px"
   viewBox="0 0 70.000732 44.099998"
   xml:space="preserve"
   id="svg18"
   sodipodi:docname="scholar.svg"
   width="70.000732"
   height="44.099998"
   inkscape:version="1.0.1 (0767f8302a, 2020-10-17)"><metadata
     id="metadata24"><rdf:RDF><cc:Work
         rdf:about=""><dc:format>image/svg+xml</dc:format><dc:type
           rdf:resource="http://purl.org/dc/dcmitype/StillImage" /><dc:title></dc:title></cc:Work></rdf:RDF></metadata><defs
     id="defs22" /><sodipodi:namedview
     pagecolor="#ffffff"
     bordercolor="#666666"
     borderopacity="1"
     objecttolerance="10"
     gridtolerance="10"
     guidetolerance="10"
     inkscape:pageopacity="0"
     inkscape:pageshadow="2"
     inkscape:window-width="1920"
     inkscape:window-height="1043"
     id="namedview20"
     showgrid="false"
     inkscape:zoom="6.896"
     inkscape:cx="35.000366"
     inkscape:cy="34.5"
     inkscape:window-x="0"
     inkscape:window-y="0"
     inkscape:window-maximized="1"
     inkscape:current-layer="svg18" /><g
     id="g12"
     transform="translate(-14.999634,-28)"><g
       id="g10"><g
         id="g8"><path
           d="m 50,57.6 c -1.7,0 -3.4,-0.3 -4.9,-0.9 L 16.9,45.5 c -1.5,-0.6 -2.3,-2.3 -1.7,-3.8 0.3,-0.8 0.9,-1.4 1.7,-1.7 L 45,28.9 c 3.2,-1.2 6.7,-1.2 9.9,0 L 83.1,40 c 1.5,0.6 2.3,2.3 1.7,3.8 -0.3,0.8 -0.9,1.4 -1.7,1.7 L 54.9,56.7 c -1.5,0.6 -3.2,0.9 -4.9,0.9 z M 26,42.8 47.2,51.2 c 1.8,0.7 3.7,0.7 5.5,0 L 73.9,42.8 52.7,34.4 c -1.8,-0.7 -3.8,-0.7 -5.5,0 z"
           id="path2" /><path
           d="M 61.4,72.1 H 38.6 C 32.8,72.1 28,67.4 28,61.5 V 47.9 c 0,-1.6 1.3,-3 3,-3 1.6,0 3,1.3 3,3 v 13.6 c 0,2.6 2.1,4.7 4.7,4.7 h 22.7 c 2.6,0 4.7,-2.1 4.7,-4.7 V 47.9 c 0,-1.6 1.3,-3 3,-3 1.7,0 3,1.3 3,3 v 13.6 c -0.2,5.9 -4.9,10.6 -10.7,10.6 z"
           id="path4" /><path
           d="m 82,72.1 c -1.6,0 -3,-1.3 -3,-2.9 0,0 0,0 0,0 V 42.8 c 0,-1.6 1.3,-3 3,-3 1.7,0 3,1.3 3,3 v 26.4 c 0,1.6 -1.3,2.9 -3,2.9 0,0 0,0 0,0 z"
           id="path6" /></g></g></g></svg>
