<?xml version="1.0" encoding="UTF-8" standalone="no"?>
<svg
   xmlns:dc="http://purl.org/dc/elements/1.1/"
   xmlns:cc="http://creativecommons.org/ns#"
   xmlns:rdf="http://www.w3.org/1999/02/22-rdf-syntax-ns#"
   xmlns:svg="http://www.w3.org/2000/svg"
   xmlns="http://www.w3.org/2000/svg"
   xmlns:sodipodi="http://sodipodi.sourceforge.net/DTD/sodipodi-0.dtd"
   xmlns:inkscape="http://www.inkscape.org/namespaces/inkscape"
   version="1.1"
   x="0px"
   y="0px"
   viewBox="0 0 20 20"
   enable-background="new 0 0 20 20"
   xml:space="preserve"
   id="svg8"
   sodipodi:docname="chip.svg"
   width="20"
   height="20"
   inkscape:version="0.92.4 (5da689c313, 2019-01-14)"><metadata
     id="metadata14"><rdf:RDF><cc:Work
         rdf:about=""><dc:format>image/svg+xml</dc:format><dc:type
           rdf:resource="http://purl.org/dc/dcmitype/StillImage" /></cc:Work></rdf:RDF></metadata><defs
     id="defs12" /><sodipodi:namedview
     pagecolor="#ffffff"
     bordercolor="#666666"
     borderopacity="1"
     objecttolerance="10"
     gridtolerance="10"
     guidetolerance="10"
     inkscape:pageopacity="0"
     inkscape:pageshadow="2"
     inkscape:window-width="2400"
     inkscape:window-height="1284"
     id="namedview10"
     showgrid="false"
     inkscape:zoom="26.700352"
     inkscape:cx="5.0403349"
     inkscape:cy="6.6796942"
     inkscape:window-x="-9"
     inkscape:window-y="-9"
     inkscape:window-maximized="1"
     inkscape:current-layer="svg8" /><path
     d="M 17.6,6 C 17.8,6 18,5.8 18,5.6 V 5 h 1.6 C 19.8,5 20,4.8 20,4.6 V 3.4 C 20,3.2 19.8,3 19.6,3 H 18 V 2.4 C 18,2.2 17.8,2 17.6,2 H 16 V 1 C 16,0.4 15.6,0 15,0 H 5 C 4.4,0 4,0.4 4,1 V 2 H 2.4 C 2.2,2 2,2.2 2,2.4 V 3 H 0.4 C 0.2,3 0,3.2 0,3.4 V 4.6 C 0,4.8 0.2,5 0.4,5 H 2 V 5.6 C 2,5.8 2.2,6 2.4,6 H 4 V 8 H 2.4 C 2.2,8 2,8.2 2,8.4 V 9 H 0.4 C 0.2,9 0,9.2 0,9.4 v 1.2 C 0,10.8 0.2,11 0.4,11 H 2 v 0.6 C 2,11.8 2.2,12 2.4,12 H 4 v 2 H 2.4 C 2.2,14 2,14.2 2,14.4 V 15 H 0.4 C 0.2,15 0,15.2 0,15.4 v 1.2 C 0,16.8 0.2,17 0.4,17 H 2 v 0.6 C 2,17.8 2.2,18 2.4,18 H 4 v 1 c 0,0.6 0.4,1 1,1 h 10 c 0.6,0 1,-0.4 1,-1 v -1 h 1.6 C 17.8,18 18,17.8 18,17.6 V 17 h 1.6 C 19.8,17 20,16.8 20,16.6 V 15.4 C 20,15.2 19.8,15 19.6,15 H 18 V 14.4 C 18,14.2 17.8,14 17.6,14 H 16 v -2 h 1.6 C 17.8,12 18,11.8 18,11.6 V 11 h 1.6 C 19.8,11 20,10.8 20,10.6 V 9.4 C 20,9.2 19.8,9 19.6,9 H 18 V 8.4 C 18,8.2 17.8,8 17.6,8 H 16 V 6 Z M 12.5,5 C 11.7,5 11,4.3 11,3.5 11,2.7 11.7,2 12.5,2 13.3,2 14,2.7 14,3.5 14,4.3 13.3,5 12.5,5 Z"
     id="path2"
     inkscape:connector-curvature="0"
     style="fill:#000000" /></svg>