<svg xmlns="http://www.w3.org/2000/svg" xmlns:xlink="http://www.w3.org/1999/xlink" version="1.1" x="0px" y="0px" viewBox="0 0 100 125" style="enable-background:new 0 0 100 100;" xml:space="preserve"><g><g><g><path d="M50,57.6c-1.7,0-3.4-0.3-4.9-0.9L16.9,45.5c-1.5-0.6-2.3-2.3-1.7-3.8c0.3-0.8,0.9-1.4,1.7-1.7L45,28.9     c3.2-1.2,6.7-1.2,9.9,0L83.1,40c1.5,0.6,2.3,2.3,1.7,3.8c-0.3,0.8-0.9,1.4-1.7,1.7L54.9,56.7C53.4,57.3,51.7,57.6,50,57.6z      M26,42.8l21.2,8.4c1.8,0.7,3.7,0.7,5.5,0l21.2-8.4l-21.2-8.4c-1.8-0.7-3.8-0.7-5.5,0L26,42.8z"/><path d="M61.4,72.1H38.6c-5.8,0-10.6-4.7-10.6-10.6V47.9c0-1.6,1.3-3,3-3c1.6,0,3,1.3,3,3v13.6c0,2.6,2.1,4.7,4.7,4.7h22.7     c2.6,0,4.7-2.1,4.7-4.7V47.9c0-1.6,1.3-3,3-3s3,1.3,3,3v13.6C71.9,67.4,67.2,72.1,61.4,72.1z"/><path d="M82,72.1c-1.6,0-3-1.3-3-2.9c0,0,0,0,0,0V42.8c0-1.6,1.3-3,3-3s3,1.3,3,3v26.4C85,70.8,83.7,72.1,82,72.1     C82,72.1,82,72.1,82,72.1z"/></g></g></g><text x="0" y="115" fill="#000000" font-size="5px" font-weight="bold" font-family="'Helvetica Neue', Helvetica, Arial-Unicode, Arial, Sans-serif">Created by Shiva</text><text x="0" y="120" fill="#000000" font-size="5px" font-weight="bold" font-family="'Helvetica Neue', Helvetica, Arial-Unicode, Arial, Sans-serif">from the Noun Project</text></svg>